<?xml version="1.0" encoding="UTF-8"?>
<!DOCTYPE svg PUBLIC "-//W3C//DTD SVG 1.1//EN" "http://www.w3.org/Graphics/SVG/1.1/DTD/svg11.dtd">
<!-- Creator: CorelDRAW 2019 (64-Bit) -->
<svg xmlns="http://www.w3.org/2000/svg" xml:space="preserve" width="5.11754in" height="9.55055in" version="1.1" style="shape-rendering:geometricPrecision; text-rendering:geometricPrecision; image-rendering:optimizeQuality; fill-rule:evenodd; clip-rule:evenodd"
viewBox="0 0 5397.88 10073.73"
 xmlns:xlink="http://www.w3.org/1999/xlink">
 <defs>
  <style type="text/css">
   <![CDATA[
    .str0 {stroke:#F59E0B;stroke-width:3.16;stroke-miterlimit:2.61313}
    .fil0 {fill:#1A1A1A}
    .fil3 {fill:#7A7A7A}
    .fil4 {fill:#B2B2B2}
    .fil5 {fill:#EAA765}
    .fil2 {fill:#EEB681}
    .fil1 {fill:#F59E0B}
    .fil6 {fill:#F7DCC2}
   ]]>
  </style>
 </defs>
 <g id="Layer_x0020_1">
  <metadata id="CorelCorpID_0Corel-Layer"/>
  <g id="_2467654419440">
   <path class="fil0" d="M987.91 992.59l1136 0c-1.35,2.98 -2.91,7.45 -4.83,14.64 -6.82,25.51 -2.72,37.15 -9.18,63.93 -12.69,52.56 -22.15,32.3 -24.96,111.88 -0.85,23.95 1.67,34.01 -4.77,56.12 -9.48,32.59 -13.56,13.01 -21.54,46.79 -6.97,29.44 0.69,50.74 -13.65,83.82 -39.41,90.88 -12.5,97.65 -31.8,136.69 -17.23,34.85 -5.63,-16.34 -20.21,37.43 -8.49,31.29 -28.91,130.29 -29.16,171.56 -35.12,0 -21.99,34.42 -58.98,157.03 -9.23,30.6 -7.17,62.04 -15.75,95.58l-44.79 172.26c-8.43,31.3 -5.89,62.14 -15.07,94.75l-30.63 129.56c-9.43,25.98 -11.08,7.13 -12.96,42.07 8.56,71.18 159.67,49.58 230.95,49.65 84.11,0.1 168.24,0.28 252.35,0.56l0 167.9c-130.77,1.14 -264.26,2.87 -385.8,-8.79 -98.88,-9.49 -435.58,8.33 -507.88,-19.21 6.89,-26.07 10.08,-20.64 31.24,-50.96 17.77,-25.49 20.17,-29.02 37.47,-46.55l159.56 -153.57c122.77,-106.22 91.98,-169.51 112.8,-217.77 30.92,-71.71 6.19,-82.14 25.36,-146.44 9.8,-32.82 11.45,-9.73 18.84,-58.34 21.2,-139.11 40.48,-107.25 34.7,-233.85 -22.08,-0.22 -30.07,-3.43 -49.8,9.1 -22.68,14.4 3.89,-3.35 -16.35,15.46l-63.4 50.06c-20.41,17.3 -25.68,16.69 -31.15,54.18 -20.24,3.64 -57,45.58 -75.49,61.58l-87.9 65.95c-89.54,101.69 -107.55,94.91 -192.08,166.19 -51.1,43.08 -97.53,71.65 -136.54,126.5 -27.59,38.78 -17.17,12.27 -56.43,47.54l-16.99 16.32c-45.79,48.38 3.4,12.88 -62.27,48.81l-18.9 16.03 0 -1374.43zm3426.95 513.43c232.98,265.23 365.3,640.16 396.95,1124.77 -384.73,-2.05 -872.21,-3.33 -1309.89,-4.21 -14.26,-61.29 -32.71,-116.06 -55.36,-164.3 296.33,-0.55 534.47,-4.01 542.88,-13.91 9.92,-26.08 8.21,-35.79 21.71,-60.19 18.89,-34.11 21.68,-28.18 24.95,-81.04l216.08 -433.5c33.9,-76.16 66.4,-165.16 109.49,-235.26 19.31,-31.41 5.79,-10.7 21.32,-46.99 10.14,-23.7 20.75,-55.87 31.88,-85.37zm-2145.94 909.64c-131.79,1.06 -226.84,4.26 -294.69,5.04 67.88,-0.79 163.01,-3.98 294.69,-5.04zm-308.88 5.17c-21.62,0.15 -40.25,-0.02 -56.16,-0.68 15.93,0.66 34.51,0.82 56.16,0.68zm-58.87 -0.81c-2.18,-0.1 -4.34,-0.2 -6.42,-0.32 2.07,0.12 4.24,0.22 6.42,0.32zm-9.53 -0.52c-1.72,-0.11 -3.43,-0.22 -5.08,-0.34 1.64,0.12 3.36,0.23 5.08,0.34zm377.28 741.94l0 204.89c-22.87,4.13 -46.07,8.4 -68.82,9.66l-367.16 19.04c-76.04,4.12 -162.99,17.89 -241.3,21.6 -27.34,58.97 -43.89,160.68 -60.45,230.84 -5.65,23.89 -5.52,55.36 -12.12,79.05 -7.52,27.02 -15.99,34.47 -22.52,72.73 -5.58,32.64 -6.89,54.97 -15.14,83.6 -14.73,51.05 -19.2,99.76 -36.94,148.76 -14.56,40.24 -5.92,37.12 -15.14,83.18 -8.59,42.86 -13.15,11.11 -21.8,73.61 -4.07,29.46 -3.8,58.48 -13.9,87.1 -11.33,32.15 -12.89,79.02 -24.55,118.12 -7.98,26.78 -0.39,0.56 -14.07,28.45 -8,16.32 -41.62,191.36 -38.73,235.98l188.05 166.25c1.25,1.19 2.94,2.92 4.17,4.11 57.89,55.82 119.53,82.87 177.46,147.89 13.54,15.19 31.15,31.86 45.7,44.16 16.34,13.8 30.97,19.73 48.17,32.86l136.58 124.39c9.72,9.13 12.77,11.81 20.85,20.68 45.02,49.32 131.8,87.22 157.04,125.51 18.05,27.37 108.78,104.19 174.63,158.02l0 245.16c-51.6,-34.39 -102.28,-88.72 -148.67,-127.02 -70.6,-58.25 -81.42,-99.15 -159.44,-13.71 -42.78,46.85 -91.04,73.58 -133.55,119.45 -28.59,30.85 -56.85,42.24 -84.92,70.22 -4.49,4.48 -11.69,11.12 -16.69,15.88l-17.24 15.98c-5.05,4.16 -14.89,10.87 -18.61,13.99 -20.61,17.27 -37.38,37.17 -58.9,63.24 -33.88,41.02 -81.56,63.17 -113.02,99.56l-518.86 479.04c-12.26,18.61 -7.5,20.71 -7.34,50.77 31.87,6.42 69.12,10.5 104.85,17.91 36.92,7.66 58.24,24 92.09,31.22l196.48 41.91c35.88,5.83 43.83,26.35 89.1,33.5 20.52,3.24 33.85,2.79 50.38,10.07 21.87,9.65 15.8,13.31 38.54,23.16 27.88,12.1 73.75,2.5 105.15,17.54 46.09,22.05 -3.26,26 84.05,29.48 77.58,3.09 299.24,65.21 387.02,98.48l129.6 32.59 0 1119.83 -13.99 53.99c-17.29,99.88 4.84,11.46 -24.01,101.35 -4.8,14.95 -34.08,174.06 -49.38,207.8 -24.22,53.4 -8.86,55.36 -24.49,111.23 -11.99,42.94 -70.47,271.3 -71.78,309.1l-93.63 390.85 -1003.74 0 0 -5877.59c26.37,-2.78 52.24,-6.24 77.41,-10.6 97.85,-16.96 192.53,-20.09 298.59,-21.42 97.09,-1.23 199.83,-17.79 293.4,-26.83 123.2,-11.9 354.74,-2.16 452.04,-31.1 34.75,-10.33 94.17,-13.89 159.57,-15.5zm1221.76 685.69c31.73,-110.33 47.61,-242.77 47.61,-397.34l0 -135.22c6.03,0.75 7.65,12.13 12.45,-31.89 -3.28,-1.86 -7.5,-3.44 -12.45,-4.79l0 -216.5c172.2,-15.87 366.29,0.51 531.75,-15.76 125.47,-12.35 135.63,-27.49 293.45,-28.64 114.27,-0.82 209.76,-11.29 320.83,-10.22 -8.36,38.22 1.77,30.06 -50.91,72.22l-336.83 317.67c-8.22,6.58 -19.65,20.62 -27.71,29.64 -16.62,18.6 -11.29,19.38 -26.76,22.77 -36.06,-1.4 -32.01,2.92 -56.59,28.49l-135.46 128.45c-7.92,7.46 -10.08,10.95 -19.97,19.92l-88.99 82.12c-23.28,21.7 -59.53,48.47 -67.32,71.85 6.72,19.43 32,40.28 44.65,52.65 17.42,17.06 41.56,11.63 70.84,19.26 36.73,9.55 21.6,21.34 64.28,31.57 29.14,6.98 26.29,0.31 51.73,20.1 15.06,11.71 -3.19,0.98 12.28,10.76 26.15,16.55 42.73,0.47 73.26,19.25 45.76,28.15 50.31,54.73 121.98,-21.42 21.67,-23.04 41.68,-34.5 46.23,-72.53l377.61 -387.5c34.93,-32.46 59.27,-60.76 78.48,-82.92 -16.69,340.05 -83.22,623.15 -199.6,849.27 -11.99,23.29 -24.55,46 -37.66,68.15 -5.85,-1.15 -11.5,-2.47 -16.81,-4.38 -31.44,-11.3 -16.32,-14.68 -48.79,-29.24l-111.8 -44.04c-35.63,-8.01 -30.29,-15.34 -54.05,-24.71 -20.21,-7.98 -41.5,-8.58 -61.59,-15.81 -24.87,-8.95 -29.18,-17.66 -52.29,-26.52 -22.03,-8.47 -46.34,-5.89 -65.49,-19.41 -31.24,-22.08 0.32,-19.33 -52.91,-26.27 -50.91,-6.64 -24.13,-4.41 -55.79,-21.97 -18.67,-10.34 -40.46,-10.23 -60.53,-17.46 -27.77,-10 -28.07,-18.49 -59.72,-27.56l-223.7 -94.38c-25.85,-12.8 -17.51,-15.83 -53.37,-24.78l-170.32 -62.89zm1180.21 1490.17c184.3,290.64 276.51,682.36 276.51,1175.28l0 269.26c-27.05,-6.62 -52.32,-18.6 -85.4,-22.13 -40.95,-4.38 -80.47,-6.64 -117.43,-10.03 -61.07,-5.61 -46.9,-21.42 -98.27,-29.97 -38.17,-6.34 -72.61,-2.88 -108.16,-11 -36.39,-8.28 -59.65,-22.67 -102.2,-27.08 -40.25,-4.17 -83.3,0.04 -123.73,-4.29 -36.13,-3.88 -73.21,-12.2 -108.52,-21.07 -68.09,-17.11 -150.98,-5.34 -224.44,-24.44 -42.49,-11.05 -56.59,-20.35 -106.9,-22.46 -99.02,-4.14 -126.76,-18.75 -205.97,-33.25l0 -110.12c0,-28.84 -0.38,-57 -1.15,-84.47l23.84 1.63c113.3,7.83 201.25,46.52 322.37,45.19 10.71,-12.33 31.82,-41 40.63,-55.1 0.54,-0.86 6.61,-11.42 9.45,-16.02l24.73 -42.88c38.98,-75.29 86.13,-138.77 125.93,-213.39l24.75 -43.82c33.59,-53.28 59.96,-114.65 96.73,-166.75 37.73,-53.47 67.74,-125.13 101.89,-178.68l67.49 -101.47c1.05,-1.35 2.72,-3.14 3.75,-4.49l111.84 -181.38c0.9,-1.84 1.95,-4.26 2.88,-6.1l16.38 -27.8c8.26,-12.01 1.11,-1.81 10.98,-14.61l22.02 -38.55zm276.45 1888.33c-2.49,621.81 -167.43,1096.47 -494.88,1423.91 -329.96,329.96 -813.25,494.94 -1449.87,494.94l-591.33 0 98.33 -169.15c7.9,-13.99 15.61,-26.69 20.4,-38.55 34.24,-11.45 20.15,-8.89 42.8,-48.7l203.06 -338.99c13.8,-21.32 16.58,-30.62 29.7,-55.42l116.61 -197.85c39.19,-70.83 25.84,-29.07 84.13,-144.39 11.54,-22.83 24.08,-29.96 37.2,-46.79l45.95 -79.74c0.95,-1.59 2.23,-3.84 3.18,-5.42l27.03 -45.54c166.87,-17.91 294.78,-76.07 383.7,-174.53 104.45,-115.65 158.71,-311.98 162.78,-588.97 3.41,0.95 6.8,2.08 10.16,3.43 39.33,15.86 34.71,25.63 92.78,28.4 39.8,1.91 68.07,-0.54 100.25,16.12 61.97,32.05 139.77,4.8 172.97,71.39 -8.38,26.24 -137.66,179.55 -161.76,206.79 -7.52,8.5 -15.92,14.63 -24.92,24.3 -82.28,88.34 -149.74,196.23 -235.44,279.65 -38.25,37.25 -61.26,84.51 -93.61,114.17 -55.8,51.14 -133.58,153.56 -189.16,217.02 -15.51,17.71 -32.25,37.78 -40.44,52.7 -24.03,12.99 -149.12,167.54 -177.08,202.38 -67.88,84.57 -16,39.31 -111.29,128.71l-138.27 169.51c-1.01,1.49 -2.48,3.32 -3.48,4.93l-10.18 18.2c-8.87,19.54 0.31,-26.99 -8.75,26.61 45.04,-2.94 73.71,-34.12 110.37,-58.34l136.54 -97.87c35.64,-30.39 104.66,-77.44 123.34,-112.31 32.47,-1.5 209.12,-150.14 261.19,-191.07 9.59,-7.53 2.53,-3.13 12.88,-11.6 14.43,-11.86 23.66,-14.78 37.82,-26.65 15.15,-12.72 12.72,-14.39 30.08,-25.79 25.35,-16.66 50.51,-27.74 74.58,-46.96 72.71,-58.1 91.07,-53.44 110.26,-73.98l117.76 -93.98c7.27,-5.41 10.69,-6.47 18.89,-13.11l268.31 -200c1.42,-1.1 3.18,-2.65 4.63,-3.72 1.48,-1.09 3.33,-2.45 4.86,-3.5 17.08,-11.82 17.15,-8.45 33.37,-22.36l138.7 -95.46c14.5,-10.45 7.04,-15.12 31.34,-33.92 78,-60.34 52.81,-19.56 145.28,-112.35 46.09,-46.22 237.63,-179.36 300.21,-225.78 9.49,-7.02 26.57,-21.11 36.96,-27.99l102.08 -72.41zm-2678.42 -1294.29l0 423.97c-48.79,-5.48 -104.27,-3.41 -149.9,-16.95 -31.66,-9.41 -14.99,-11.64 -46.99,-21.36 -49.72,-15.07 -114.92,1.64 -156.02,-26.52 39.87,-54.29 70.5,-66.05 109.76,-107.55l243.15 -251.6z"/>
   <g>
    <path class="fil0" d="M3303.33 3841.84c3.67,-41.96 29.33,-78.14 45.05,-111.72 0.83,-1.76 1.76,-4.11 2.57,-5.86l19.24 -37.18c10.32,-21.97 3.99,-11.13 11.22,-32.67l41.17 -86.77c29.58,-41.17 54.27,-101.53 73.32,-150.25 21.59,-55.22 21.15,13.34 28.49,-54.04 -56.31,-31.96 -384.48,18.92 -470.53,20.89 -151.77,3.47 -311.58,19.2 -464.29,39.45 -77.14,10.23 -165.83,4.32 -242.59,12.33 -36.16,3.77 -74.83,14.34 -112.25,16.43l-350.59 18.18c-72.6,3.93 -155.63,17.08 -230.4,20.62 -26.11,56.31 -41.91,153.42 -57.73,220.42 -5.39,22.81 -5.27,52.85 -11.57,75.47 -7.18,25.8 -15.27,32.92 -21.51,69.45 -5.33,31.16 -6.58,52.49 -14.46,79.83 -14.06,48.74 -18.33,95.25 -35.28,142.05 -13.9,38.42 -5.65,35.45 -14.45,79.42 -8.2,40.92 -12.55,10.61 -20.82,70.29 -3.89,28.13 -3.63,55.84 -13.27,83.17 -10.82,30.7 -12.31,75.45 -23.45,112.79 -7.62,25.57 -0.37,0.54 -13.43,27.16 -7.64,15.58 -39.74,182.73 -36.98,225.32l179.56 158.75c1.2,1.14 2.81,2.79 3.99,3.92 55.28,53.3 114.13,79.13 169.45,141.21 12.93,14.51 29.75,30.42 43.64,42.17 15.6,13.17 29.57,18.84 46,31.38l130.41 118.77c9.28,8.72 12.19,11.28 19.9,19.75 42.99,47.1 125.85,83.29 149.95,119.84 24.03,36.44 183.09,164.77 224.37,197.21 20.89,16.43 26.01,26.89 40.85,46.35l346.89 305.15c57.04,37.13 31.47,80.74 14.58,152.68 -10.81,46.03 -31.27,80.34 -26.08,132.44l5.12 19.26c16.69,23.72 42.35,16.53 72.29,21.19l67.9 19.85c55.38,9.51 109.33,3.3 160.73,19.11 72.1,22.18 75.21,24.48 153.71,26.3 36.63,0.85 46.38,1.04 75.48,11.91 90.99,33.99 151.91,11.92 232.11,34.39 75.62,21.22 76.29,20.18 154.82,25.61 108.19,7.49 192.16,44.42 307.82,43.15 10.23,-11.77 30.39,-39.14 38.8,-52.61 0.51,-0.83 6.31,-10.9 9.02,-15.3l23.62 -40.95c37.22,-71.88 82.24,-132.51 120.25,-203.75l23.64 -41.84c32.08,-50.88 57.25,-109.48 92.36,-159.22 36.03,-51.06 64.69,-119.48 97.29,-170.61l64.44 -96.9c1,-1.28 2.59,-3 3.58,-4.28l106.79 -173.2c0.86,-1.76 1.86,-4.07 2.75,-5.83l15.64 -26.54c7.88,-11.47 1.06,-1.73 10.48,-13.95l123.46 -216.08c10.92,-20.77 2.96,-9.17 10.99,-30.12 15.13,-39.53 42.63,-79.8 64.73,-115.06l33.96 -54.82c0.88,-1.58 2.07,-3.72 2.91,-5.35 17.86,-35.16 7.2,-26.77 31.33,-57.64 15.76,-20.16 20.44,-30.54 35.62,-53.33l10.08 -13.81c6.08,-8.97 0.19,1.69 9.27,-14.6l78.7 -141.11c30.06,-59.25 104.77,-130.12 18.94,-160.43l-345.75 -123.6c-1.4,-0.84 -3.12,-2.16 -4.51,-3.03 -8.09,-5 -3.56,-2.78 -9.07,-5.92 -18.89,-10.78 -2.86,-4.27 -26.04,-11.03 -36.14,-10.51 -31.67,-10.23 -59.23,-23.2 -19.74,-9.3 -41.47,-8.8 -59.26,-15.2 -30.02,-10.78 -15.59,-14.02 -46.59,-27.92l-106.75 -42.04c-34.01,-7.65 -28.92,-14.65 -51.61,-23.6 -19.3,-7.62 -39.62,-8.19 -58.81,-15.09 -23.75,-8.54 -27.86,-16.86 -49.93,-25.32 -21.04,-8.09 -44.25,-5.62 -62.54,-18.53 -29.83,-21.08 0.31,-18.46 -50.52,-25.08 -48.61,-6.34 -23.04,-4.2 -53.27,-20.98 -17.82,-9.88 -38.63,-9.77 -57.8,-16.68 -26.51,-9.54 -26.8,-17.65 -57.02,-26.31l-213.61 -90.13c-24.69,-12.21 -16.72,-15.11 -50.96,-23.66l-326.34 -120.5z"/>
    <path class="fil0" d="M2009.1 1866.83l-30.15 176.07c-12.3,37.27 -17.43,18.77 -23.82,73.68 -6.89,59.16 -8.97,38.92 -20.52,81.19 -7.83,28.61 -5.21,56.6 -12.12,84.23 -5.8,23.26 -16.45,34.14 -23.75,72.67 -45.32,239.43 -122.88,177.88 524.89,180.52l1092.45 16.53c93.38,0.63 186.75,1.08 280.13,1.61 194.02,1.12 102.91,-7.45 177.16,-105.2l14.45 -16.31 206.32 -413.94c32.37,-72.71 63.4,-157.69 104.54,-224.63 18.44,-29.99 5.53,-10.22 20.35,-44.87 17.74,-41.47 37.03,-110.14 58.08,-140.46l33.67 -56.97c28.38,-70.08 16.39,-29.38 33.55,-62.96 13.65,-26.69 25.77,-71.22 38.91,-93.57 5.31,-9.03 1.74,-1.41 9.76,-13.36 20.29,-30.24 35.14,-80.65 51.8,-113.5l20.09 -46.56c5.95,-12.67 3.46,-6.51 11.88,-18.12l34.63 -64.58c31.24,-65.84 34.11,-45.07 31.59,-81.41 -0.16,-2.24 -1.21,-5.7 -1.44,-7.57 -5.04,-40.12 -537.78,-15.08 -607.25,-15.08 -244.39,0 -1825.12,-12.16 -1843.5,9.07 -15.36,17.74 -13.96,89.1 -17.57,106.84 -6.26,30.77 -7.7,9.81 -15.88,40.45 -6.52,24.37 -2.6,35.48 -8.77,61.04 -12.11,50.18 -21.15,30.84 -23.84,106.83 -0.81,22.86 1.59,32.47 -4.55,53.58 -9.05,31.12 -12.94,12.42 -20.57,44.68 -6.65,28.11 0.66,48.45 -13.03,80.03 -37.63,86.77 -11.93,93.23 -30.36,130.52 -16.46,33.27 -5.38,-15.61 -19.3,35.73 -8.11,29.88 -27.6,124.41 -27.84,163.82z"/>
    <path class="fil1" d="M1694.68 1964.87c-19.33,3.47 -54.43,43.51 -72.08,58.8l-83.93 62.96c-85.5,97.1 -102.69,90.62 -183.41,158.69 -48.79,41.14 -93.13,68.42 -130.38,120.79 -26.34,37.03 -16.39,11.71 -53.88,45.39l-16.22 15.58c-43.72,46.19 3.25,12.3 -59.46,46.61l-93.62 79.37c-28.84,29.23 -18.76,8.46 -45.42,31.31 -17.35,14.87 -34.66,37.16 -51.08,50.01l-147.26 124.11c-1.39,1.07 -3.13,2.43 -4.5,3.53 -1.81,1.45 -6.79,5.95 -8.55,7.42l-248.38 201.52c-1.32,1.02 -3.02,2.45 -4.31,3.52l-67.65 63.88c-32.89,23.27 -34.39,17.13 -67.91,49.19l-38.35 39.91c-22.23,21.5 -74.89,46.21 -90,56.53l-157.53 137.98c-59.62,48.31 -35.46,51.92 -70.75,88.87 116.11,2.54 440.72,-33.46 567.96,-43.46 185.48,-14.6 402.71,2.01 583.22,-29.25 93.43,-16.19 183.84,-19.17 285.11,-20.44 92.7,-1.18 190.8,-16.99 280.15,-25.63 117.64,-11.36 338.72,-2.06 431.63,-29.7 89.73,-26.68 351.74,-6.08 433.01,-29.18 22.03,-6.27 19.45,-12.22 59.34,-13.56 187.01,-6.28 311.23,-14.73 501.03,-38.76 98.58,-12.47 195.97,-2.22 293.24,-18.82 181.67,-31.03 402.04,-7.01 585.54,-25.06 119.8,-11.78 129.5,-26.24 280.2,-27.34 109.11,-0.78 200.29,-10.78 306.34,-9.76 -7.99,36.5 1.69,28.71 -48.61,68.96l-321.62 303.32c-7.85,6.28 -18.77,19.69 -26.46,28.3 -15.87,17.77 -10.78,18.52 -25.55,21.74l-16.61 31.38c-9.04,12.15 -8.92,9.86 -20.02,18.63 -69.01,54.52 -169.45,158.15 -205.58,185.11 -25.85,19.28 -63.54,56.65 -77.13,80.77 22.19,32.87 65.69,42.6 110.63,55.56l114.32 51c21.34,14.27 35.99,12.11 59.25,21.54 63.27,25.65 42.02,17.49 116.1,-47.91 24.24,-21.4 0.54,-7.77 30.68,-23.24l360.56 -370c52.53,-48.81 79.96,-87.79 102.7,-109.51l105.4 -106c36.84,-29.63 104.2,-109.82 162.18,-160.24 11.48,-10 13.71,-9.21 25.61,-21.12l74.19 -81.43 229.63 -248.92c0.68,-3.43 2.7,-3.7 3.97,-5.65 -136.94,-22.36 -350.19,-8.86 -499.73,-9.17l-1484.64 -18.89c-327.19,-2.5 -662.99,-7.38 -994.4,-8.26 -168.08,-0.45 -336.15,-0.45 -504.21,-0.86 -84.04,-0.22 -168.08,0.15 -252.11,-0.37 -73.02,-0.45 -306.29,27.61 -216.1,-73.84 4.65,-5.23 12.08,-9.77 20.73,-18.58l11.39 -13.37c1.02,-1.2 2.33,-3.26 3.32,-4.42 0.97,-1.12 2.33,-3.03 3.31,-4.09 37.98,-41.51 78.86,-61.66 162.89,-159.13 22.19,-25.72 16.54,-15.59 40.74,-36.21 93.99,-80.07 83.48,-131.1 104.57,-229.41 5.69,-26.54 13.96,-39.09 18.65,-65.89l58.04 -280.57 -32.04 16.32c-28.34,25.07 -74.54,73.29 -106.15,79.41z"/>
    <path class="fil1" d="M3282.06 8081.96c3.9,34.75 -29.59,60.33 -72.78,110.86 -13.58,15.88 -32.15,35.73 -40.96,46.5 -0.97,1.19 -2.35,3.12 -3.3,4.32 -0.94,1.19 -2.26,3.2 -3.19,4.42l-171.4 209.42c-19.53,28.65 -8.57,2.27 -18.84,42.2 50.87,-15.89 76.81,-46.3 117.19,-76.01 20.87,-15.37 31.97,-23.46 54.52,-38.88 30.96,-21.17 22.6,-33.03 63.52,-33.73 31,-1.43 199.67,-143.35 249.4,-182.44 9.16,-7.19 2.42,-2.99 12.3,-11.08 13.78,-11.32 22.59,-14.11 36.11,-25.45 14.46,-12.15 12.15,-13.75 28.72,-24.62 24.2,-15.91 48.23,-26.49 71.21,-44.84 69.43,-55.48 86.96,-51.03 105.28,-70.64l112.44 -89.74c6.94,-5.16 10.21,-6.18 18.04,-12.51l256.19 -190.97c1.36,-1.05 3.04,-2.52 4.42,-3.55 1.41,-1.04 3.19,-2.34 4.64,-3.33 16.31,-11.29 16.38,-8.07 31.86,-21.35l132.44 -91.15c13.85,-9.97 6.73,-14.43 29.93,-32.4 74.48,-57.61 50.43,-18.67 138.72,-107.28 44.01,-44.13 226.9,-171.26 286.65,-215.57 9.06,-6.71 25.37,-20.16 35.29,-26.73l98.86 -70.13c54.77,-39.34 64.69,-66.08 127.7,-103.6l65.12 -50.99c59.4,-55.46 230.15,-130.24 249.72,-208.39 -63.47,-17.97 -150.76,-8.06 -213.34,-31.97 -57.61,-22 -146.67,-15.92 -213.45,-24.57 -32.82,-4.24 -60.21,-20.28 -98.63,-24.38 -39.1,-4.18 -76.83,-6.34 -112.13,-9.58 -58.31,-5.35 -44.79,-20.44 -93.83,-28.61 -36.44,-6.05 -69.32,-2.76 -103.27,-10.5 -34.75,-7.9 -56.95,-21.65 -97.59,-25.86 -38.43,-3.99 -79.54,0.04 -118.14,-4.09 -34.5,-3.7 -69.91,-11.65 -103.62,-20.12 -65.02,-16.34 -144.16,-5.1 -214.31,-23.34 -40.57,-10.56 -54.03,-19.43 -102.07,-21.45 -97.82,-4.09 -122.79,-18.88 -204.7,-33.19 -88.03,-15.36 -133.12,-0.39 -217.76,-27.67 -64.41,-20.74 -141.28,-10.39 -205.51,-32.34 -81.66,-27.91 -364.52,-46.22 -418.17,-64.46 -72.58,-24.7 -136.1,-18.84 -213.15,-33.15 -39.67,-7.38 -42.37,-20.3 -99.24,-24.5l-155.03 -24.88c-50.41,-8.38 -111.47,-4 -160.6,-18.58 -30.23,-8.99 -14.31,-11.12 -44.87,-20.39 -47.48,-14.39 -109.73,1.57 -148.98,-25.32 38.08,-51.84 67.31,-63.07 104.81,-102.7l262.64 -271.76c7.6,-7.5 22.27,-22.98 27.65,-27.52 9.72,-8.19 20.69,-12.62 29.08,-17.62l-0.68 -50.89 -76.08 -60.84c-52.86,-32.08 -104.97,-88.79 -152.4,-127.94 -67.41,-55.62 -77.74,-94.68 -152.24,-13.09 -40.85,44.73 -86.93,70.26 -127.52,114.06 -27.3,29.46 -54.28,40.33 -81.09,67.06 -4.29,4.27 -11.16,10.61 -15.94,15.16l-16.47 15.26c-4.82,3.97 -14.22,10.38 -17.77,13.37 -19.68,16.49 -35.69,35.49 -56.24,60.38 -32.35,39.18 -77.88,60.33 -107.91,95.07l-495.44 457.41c-11.7,17.77 -7.16,19.77 -7.01,48.47 30.43,6.14 66,10.03 100.11,17.11 35.26,7.31 55.61,22.92 87.93,29.81l187.61 40.02c34.26,5.57 41.85,25.17 85.07,31.99 19.59,3.09 32.32,2.66 48.1,9.62 20.88,9.22 15.09,12.7 36.8,22.11 26.62,11.56 70.42,2.39 100.4,16.74 44.01,21.05 -3.11,24.82 80.26,28.15 74.08,2.94 285.73,62.26 369.55,94.03l649.35 163.29c42.98,15.99 17.51,25.54 80.58,28.54 19.78,0.95 34.77,0.68 52.98,6.39 32.71,10.29 16.1,9.72 39.6,19.95 27.87,12.12 67.19,6.57 102.04,14.59l358.86 102.43c29.94,1.73 25.86,-3.14 47.41,13.47 30.14,23.22 -7.32,14.73 36.39,19.95 35.83,4.29 69.32,-2.87 100.35,9.65 37.56,15.15 33.14,24.46 88.59,27.11 38.01,1.82 64.99,-0.51 95.72,15.39 59.17,30.61 133.46,4.59 165.16,68.18 -8,25.05 -131.44,171.44 -154.45,197.44 -7.18,8.12 -15.2,13.97 -23.79,23.2 -78.56,84.36 -142.98,187.37 -224.81,267.03 -36.53,35.57 -58.49,80.69 -89.39,109.02 -53.28,48.83 -127.55,146.63 -180.62,207.23 -14.81,16.91 -30.8,36.07 -38.62,50.33z"/>
    <path class="fil0" d="M2125.09 8587.26l-178.53 745.26c-10.36,34.65 -5.04,-0.33 -14.6,44.35 -4.65,21.71 -3.52,30.5 -8.09,52.49 -9.19,44.21 -21.64,34.88 -26.37,90.96 -7.38,87.81 -7.96,34.7 -23.23,94.99 -4.95,19.47 -3.42,32.79 -7.55,54 -5.55,28.47 -5.28,14.36 -12.9,35.66 -11.49,32.14 -8.59,67.25 -21.46,97.64 -28.66,67.68 -7.66,5.98 -25.76,82.25 -12.28,51.73 -42.04,130.63 -41.41,188.87l157.81 -236.59c17.23,-29.91 27.85,-61.49 45.41,-85.11 42.2,-56.76 163.22,-275.12 186.52,-306.99l88.96 -136.44c1,-1.32 2.47,-3.22 3.45,-4.56l43.99 -84.99c1.15,-2.27 4.46,-9.15 5.72,-11.3l19.88 -27.64c5.91,-11.53 8.07,-30.76 16.83,-51.09l49.87 -87.64c1.09,-1.11 2.99,-2.31 4.09,-3.41 1.13,-1.13 2.97,-2.42 4.09,-3.58 1.11,-1.16 2.81,-2.73 3.89,-3.97l134.56 -231.48c7.54,-13.37 14.9,-25.49 19.48,-36.81 17.69,-54.61 41.66,-89.61 71.54,-139.64l22.12 -34.01c6.04,-11.12 3.82,-9.42 11.26,-22.5 17.32,-30.5 36.22,-67.75 53.82,-92.34l340.64 -573.41c0.89,-1.51 2.21,-3.59 3.11,-5.1l33.9 -65.15c11.03,-21.73 14.1,-27.59 26.41,-45.7l172 -289.54c0.96,-1.47 2.3,-3.53 3.24,-5.02l89.27 -154.43c4.45,-7.8 21.95,-27.79 29.96,-62.98 -19.88,-15.27 -39.15,-12.61 -66.36,-13.57 -63.62,-2.25 -41.83,-13.09 -72.31,-27.59 -11.86,-5.65 -16.95,-5.41 -31.82,-6.64 -153.79,-12.61 -30.14,-26.69 -168.83,-36.72 -63.42,-4.58 -10.64,-19.82 -108.44,-31.65 -124.4,-15.04 -51.45,-15.32 -107.57,-32l-100.32 -33.72c-32.59,-13.89 -76.46,-5.98 -116.32,-23.36 -37.12,-16.2 -69.51,-29.5 -113.33,-15.76 -6.96,25.5 -6.23,28.99 -14.27,50.04 -32.42,84.93 0.46,64.92 -33.55,146.69 -12.6,30.33 -10.18,61.63 -22.53,96.61 -6.95,19.7 -8.28,14.87 -14.1,43.42l-35.9 150.1c-5,17.63 -11.15,24.53 -15.54,41.42 -5.78,22.3 -4.01,34.5 -7.69,55.72l-50.56 181.37c-10.77,55.69 -31.25,148.32 -47.91,197.1 -11.66,34.12 -9.8,74.72 -18.84,104.8 -22.77,75.79 -4.53,-13.54 -23.1,97.15 -5.74,34.22 -10.78,25.45 -17.58,48.96 -6.78,23.43 -4.21,30.89 -7.66,54.33 -4.83,32.84 -16.96,44.62 -23.17,65.91 -0.07,0.25 -4.16,20.15 -4.41,22 -17.37,125.13 -3.5,22.34 -24.29,92.49 -5.19,17.53 -3.57,31.38 -8.87,49.48l-15.73 27.95c-1.16,1.46 -4.38,7 -5.28,5.2 -0.93,-1.85 -3.64,3.61 -5.58,5.2z"/>
    <path class="fil2 str0" d="M1694.68 1964.87c31.61,-6.13 77.81,-54.34 106.15,-79.41l32.04 -16.32 -58.04 280.57c-4.69,26.8 -12.96,39.35 -18.65,65.89 -21.09,98.31 -10.58,149.35 -104.57,229.41 -24.2,20.62 -18.55,10.49 -40.74,36.21 -84.03,97.46 -124.9,117.61 -162.89,159.13 -0.98,1.07 -2.34,2.97 -3.31,4.09 -1,1.16 -2.3,3.21 -3.32,4.42l-11.39 13.37c-8.65,8.81 -16.08,13.35 -20.73,18.58 -90.19,101.45 143.07,73.39 216.1,73.84 84.03,0.51 168.07,0.15 252.11,0.37 168.07,0.42 336.13,0.42 504.21,0.86 331.41,0.88 667.21,5.76 994.4,8.26l1484.64 18.89c149.54,0.31 362.79,-13.19 499.73,9.17 -1.26,1.95 -3.29,2.22 -3.97,5.65l-229.63 248.92c32.72,-5.47 32.87,-6.58 56.97,-29.04l101.05 -102.22c25.9,-29.06 39.57,-46.3 67.03,-74.99 22.49,-23.52 56.57,-54.38 40.09,-90.64 -11.91,-12.85 -2705.26,-13.51 -2968.31,-15.15 -162.02,-1.01 -336.94,6.86 -491.57,-7.97 -94.42,-9.07 -415.91,7.94 -484.95,-18.35 6.58,-24.9 9.62,-19.7 29.82,-48.65 16.97,-24.34 19.26,-27.71 35.78,-44.45l152.35 -146.64c117.23,-101.42 87.83,-161.85 107.7,-207.94 29.53,-68.48 5.91,-78.44 24.22,-139.83 9.36,-31.34 10.93,-9.3 17.99,-55.7 20.24,-132.83 38.65,-102.41 33.13,-223.29 -21.08,-0.22 -28.71,-3.27 -47.55,8.69 -21.65,13.75 3.72,-3.2 -15.61,14.76l-60.54 47.8c-19.49,16.52 -24.52,15.93 -29.74,51.73z"/>
    <path class="fil3" d="M2125.09 8587.26c1.94,-1.59 4.66,-7.06 5.58,-5.2 0.9,1.8 4.12,-3.74 5.28,-5.2l15.73 -27.95c5.3,-18.09 3.68,-31.95 8.87,-49.48 20.79,-70.15 6.92,32.64 24.29,-92.49 0.26,-1.85 4.34,-21.76 4.41,-22 6.22,-21.28 18.35,-33.07 23.17,-65.91 3.45,-23.43 0.88,-30.89 7.66,-54.33 6.8,-23.52 11.84,-14.75 17.58,-48.96 18.57,-110.69 0.33,-21.37 23.1,-97.15 9.04,-30.08 7.18,-70.68 18.84,-104.8 16.66,-48.79 37.14,-141.41 47.91,-197.1l50.56 -181.37c3.68,-21.22 1.91,-33.42 7.69,-55.72 4.39,-16.89 10.54,-23.79 15.54,-41.42l35.9 -150.1c5.83,-28.55 7.15,-23.72 14.1,-43.42 12.35,-34.99 9.93,-66.29 22.53,-96.61 34.01,-81.77 1.13,-61.76 33.55,-146.69 8.04,-21.05 7.31,-24.54 14.27,-50.04 43.82,-13.75 76.21,-0.44 113.33,15.76 39.85,17.38 83.72,9.47 116.32,23.36l100.32 33.72c56.12,16.68 -16.83,16.96 107.57,32 97.8,11.82 45.02,27.07 108.44,31.65 138.69,10.03 15.05,24.11 168.83,36.72 14.87,1.23 19.96,0.99 31.82,6.64 30.48,14.5 8.69,25.34 72.31,27.59 27.22,0.96 46.48,-1.7 66.36,13.57 -8.01,35.19 -25.51,55.18 -29.96,62.98l-89.27 154.43c-0.94,1.5 -2.28,3.55 -3.24,5.02l-172 289.54c-12.3,18.11 -15.37,23.98 -26.41,45.7l-33.9 65.15c-0.9,1.5 -2.22,3.58 -3.11,5.1l-340.64 573.41c-17.6,24.6 -36.51,61.84 -53.82,92.34 -7.44,13.08 -5.22,11.38 -11.26,22.5l-22.12 34.01c-29.87,50.03 -53.84,85.03 -71.54,139.64 32.7,-10.93 19.24,-8.49 40.87,-46.5l193.89 -323.69c13.18,-20.35 15.83,-29.23 28.36,-52.92l111.35 -188.91c37.42,-67.62 24.67,-27.76 80.33,-137.87 11.02,-21.8 22.99,-28.61 35.52,-44.68l43.87 -76.14c0.9,-1.52 2.13,-3.66 3.03,-5.18l310.65 -523.29c0.89,-1.49 2.19,-3.54 3.08,-5.04 15.42,-26.56 41.73,-68.8 41.51,-99.18l-100.98 -44.99c-109.35,-13.51 -22.64,14.9 -118.59,-29.24 -38.35,-17.65 -87.86,-5.96 -128.78,-19.49l-108.07 -30c-50.2,-11.24 -11.3,-20.05 -113.19,-32.8 -50.36,-6.28 -56.23,-29.12 -112.72,-33.49 -88.12,-6.81 -66.47,-24.99 -113.21,-33.45 -34.03,-6.16 -95.98,-15.19 -128.05,-16.47 -53.8,105.37 -25.83,79.68 -44.6,140.14 -32.58,105 -21.88,107.94 -36.61,151.83l-150.29 579.93c-16.51,95.37 4.62,10.95 -22.93,96.77 -4.58,14.27 -32.54,166.2 -47.15,198.42 -23.13,50.99 -8.46,52.85 -23.38,106.2 -11.44,41 -67.29,259.05 -68.54,295.15z"/>
    <path class="fil1" d="M3483.9 451.72l-320.67 286.58c-21.93,16.64 -35.01,15.49 -51.93,33.35l-25.9 37.58 171.6 0.46 189.47 -200.77c11.15,-9.77 16.65,-11.53 27.9,-20.23l21.68 -23.16c1.03,-1.21 2.52,-3.14 3.55,-4.35 1.46,-1.73 5.85,-6.54 7.35,-8.23 31.8,-35.91 103.17,-121.52 141.27,-131.17 8.09,-8.95 10.51,-12.19 18.57,-21.53 73.51,-85.26 64.11,-56.61 131.56,-127.45l45.42 -57.71c16.69,-16.26 37.56,-28.35 55.56,-45.8l99.73 -104.78c54.57,-67.93 38,-24.2 50.62,-64.52 -49.25,-0.71 -67.91,26.74 -118,67.99 -17.76,14.63 -20.03,19.49 -37.34,32.68 -13.38,10.2 -24.48,17.83 -36.55,26.17l-37.07 32.55c-1.4,1.1 -3.23,2.33 -4.68,3.34l-28.05 17.32c-34.59,29.35 -22.5,39.99 -64.56,67.93 -77.75,51.65 -73.92,69.57 -101.06,94.41 -19.91,18.22 -18.29,7 -37.84,23.13l-80.04 68.76c-23.67,21.11 -3.67,12.2 -20.61,17.42z"/>
    <path class="fil4" d="M3987.83 2431.83l-14.45 16.31c-74.25,97.75 16.86,106.32 -177.16,105.2 -93.38,-0.53 -186.75,-0.98 -280.13,-1.61l-1092.45 -16.53c-647.77,-2.64 -570.21,58.91 -524.89,-180.52 7.29,-38.53 17.94,-49.41 23.75,-72.67 6.91,-27.64 4.29,-55.62 12.12,-84.23 11.55,-42.27 13.63,-22.03 20.52,-81.19 6.39,-54.91 11.52,-36.41 23.82,-73.68l30.15 -176.07c-33.54,0 -21,32.86 -56.32,149.94 -8.82,29.22 -6.84,59.23 -15.04,91.26l-42.77 164.48c-8.04,29.89 -5.62,59.34 -14.39,90.47l-29.25 123.71c-9.01,24.81 -10.58,6.81 -12.37,40.18 8.18,67.96 152.46,47.34 220.52,47.41 91.03,0.11 182.08,0.31 273.11,0.65 216.28,0.77 1590.71,15.24 1610.68,-8.24 9.48,-24.91 7.84,-34.18 20.73,-57.47 18.04,-32.57 20.7,-26.91 23.82,-77.39z"/>
    <path class="fil1 str0" d="M3483.9 451.72c-39.02,3.72 -71.46,41.16 -123.6,83.35l-277.43 235.97c-22.26,18.47 -35.19,33.38 -42.62,69.5 42.42,16.04 174.75,22.31 213.7,-4l363.74 -365.78c28.45,-25.3 18.38,-7.57 30.55,-48.97 -38.1,9.65 -109.47,95.26 -141.27,131.17 -1.5,1.69 -5.89,6.5 -7.35,8.23 -1.04,1.21 -2.52,3.14 -3.55,4.35l-21.68 23.16c-11.25,8.7 -16.75,10.46 -27.9,20.23l-189.47 200.77 -171.6 -0.46 25.9 -37.58c16.91,-17.86 29.99,-16.72 51.93,-33.35l320.67 -286.58z"/>
    <path class="fil5" d="M3206.82 8351.04c-40.92,0.7 -32.56,12.56 -63.52,33.73 -22.55,15.42 -33.65,23.51 -54.52,38.88 -40.38,29.72 -66.32,60.12 -117.19,76.01 10.27,-39.93 -0.69,-13.55 18.84,-42.2l171.4 -209.42c0.93,-1.22 2.25,-3.23 3.19,-4.42 0.95,-1.2 2.33,-3.14 3.3,-4.32 8.82,-10.77 27.38,-30.62 40.96,-46.5 43.19,-50.53 76.69,-76.11 72.78,-110.86 -22.94,12.39 -142.38,159.97 -169.08,193.24 -64.82,80.76 -15.28,37.54 -106.27,122.89l-132.03 161.86c-0.97,1.43 -2.37,3.18 -3.32,4.7l-9.72 17.38c-8.47,18.66 0.29,-25.77 -8.35,25.41 43,-2.81 70.38,-32.58 105.39,-55.7l130.37 -93.45c34.04,-29.01 99.93,-73.95 117.77,-107.23z"/>
    <path class="fil6" d="M4296.17 3895.06c-30.14,15.47 -6.44,1.84 -30.68,23.24 -74.08,65.4 -52.83,73.56 -116.1,47.91 -23.26,-9.43 -37.91,-7.27 -59.25,-21.54l-114.32 -51c-44.94,-12.96 -88.44,-22.69 -110.63,-55.56 13.59,-24.12 51.28,-61.49 77.13,-80.77 36.13,-26.95 136.57,-130.59 205.58,-185.11 11.1,-8.77 10.98,-6.49 20.02,-18.63l16.61 -31.38c-34.43,-1.34 -30.57,2.79 -54.03,27.2l-129.34 122.65c-7.56,7.12 -9.62,10.46 -19.06,19.03l-84.97 78.41c-22.23,20.72 -56.85,46.29 -64.28,68.59 6.42,18.56 30.56,38.46 42.63,50.27 16.64,16.29 39.68,11.11 67.64,18.4 35.07,9.12 20.63,20.38 61.38,30.15 27.83,6.66 25.1,0.28 49.4,19.19 14.38,11.19 -3.04,0.93 11.73,10.27 24.97,15.8 40.8,0.45 69.96,18.38 43.69,26.88 48.04,52.26 116.47,-20.45 20.7,-22 39.8,-32.95 44.14,-69.26z"/>
   </g>
  </g>
 </g>
</svg>
